<svg fill="#000000" xmlns="http://www.w3.org/2000/svg"  viewBox="0 0 32 32" width="128px" height="128px"><path d="M7.613,9.246C7.587,8.507,7.699,7.794,8.162,7.175c0.013,0.318,0.052,0.623,0.182,0.928 c0.255-1.181,0.852-2.118,1.83-2.814c-0.082,0.253-0.151,0.507-0.13,0.76c0.376-0.318,0.813-0.765,1.921-0.975 c0.636-0.12,1.285-0.086,1.821,0.043c1.665,0.4,2.639,1.474,3.015,3.106c0.229,0.992,0.03,1.933-0.359,2.853 c-0.225,0.533-0.519,1.048-0.895,1.508c-0.087-0.082-0.169-0.163-0.251-0.241c-1.851-1.753-1.159-1.083-1.618-1.607 c-0.048-0.052-0.043-0.095-0.004-0.155c0.359-0.58,0.51-1.211,0.433-1.89C14.058,8.27,13.92,7.88,13.617,7.566 c-0.627-0.657-1.696-0.644-2.314,0.026c-0.493,0.537-0.61,1.177-0.472,1.873c0.009,0.056,0.017,0.116,0,0.168 c-0.147,0.589-0.199,1.186-0.108,1.787c0.004,0.021,0.004,0.047,0.004,0.069c0,0.013-0.004,0.021-0.009,0.047 C9.776,11.063,9.161,10.32,8.85,9.293c-0.359,0.765-0.48,1.525-0.285,2.324C7.89,10.964,7.643,10.144,7.613,9.246L7.613,9.246z M27.926,14.538c-0.502-0.498-1.081-0.876-1.735-1.143c-0.554-0.223-1.125-0.339-1.726-0.305c-0.433,0.026-0.848,0.133-1.254,0.275 c-0.108,0.039-0.221,0.069-0.333,0.095c-0.212,0.052-0.316-0.133-0.203-0.292c0.138-0.198,0.147-0.18,0.649-0.516 c0.026-0.017,0.052-0.034,0.095-0.064h-0.108c-0.026,0-0.052,0.009-0.082,0.013c-0.835,0.142-1.328,0.666-2.115,1.272 c-0.45,0.348-0.597,0.163-0.519-0.021c0.061-0.15,0.143-0.288,0.221-0.43c0.043-0.077,0.099-0.146,0.151-0.219 c-0.009-0.009-0.022-0.013-0.03-0.021c-1.168,0.786-2.02,1.822-2.496,3.149c0.013,0.013,0.03,0.026,0.043,0.039 c0.013-0.026,0.022-0.052,0.039-0.073c0.45-0.52,0.986-0.937,1.583-1.28c0.787-0.455,1.622-0.786,2.539-0.868 c0.186-0.017,0.376-0.004,0.567-0.004c-0.078,0.03-0.151,0.039-0.229,0.047c-0.8,0.103-1.536,0.387-2.228,0.795 c-1.306,0.769-2.358,1.813-3.249,3.024c-0.013,0.017-0.017,0.039-0.03,0.056c0.627,0.228,1.038,0.743,1.562,1.1 c0.009-0.004,0.013-0.009,0.017-0.017l0.052-0.116c0.528-1.156,1.168-2.247,2.02-3.201c0.722-0.808,1.644-1.087,2.704-0.859 c0.255,0.056,0.493,0.189,0.744,0.292c0.099-0.06,0.221-0.137,0.346-0.202c0.363-0.185,0.753-0.301,1.155-0.387 c0.636-0.133,1.276-0.211,1.925-0.056v-0.021C27.978,14.581,27.948,14.564,27.926,14.538L27.926,14.538z M17.744,22.078 c-1.704-1.418-0.986-0.838-1.847-1.529c-0.035,0.039,0-0.009-0.082,0.129c-0.484,0.821-1.103,1.517-1.903,2.045 c-0.446,0.292-0.93,0.507-1.475,0.507c-0.934,0-1.652-0.408-2.137-1.194c-0.519-0.838-0.575-1.749-0.355-2.689 c0.337-1.452,1.302-2.371,1.67-2.762c-0.809-0.266-1.427,0.073-2.007,0.597c0.035-0.597,0.186-1.126,0.51-1.602 c-1.051,0.455-1.986,1.074-2.803,1.886c-0.013-0.249,0.234-1.877,0.242-1.92c0.013-0.116-0.026-0.228-0.13-0.318 C6.38,16.287,5.502,17.451,5,18.86c0.32-0.253,0.645-0.49,1.021-0.696c-0.359,0.958-0.848,2.268-0.337,4.343 c0.199,0.816,0.515,1.581,1.043,2.247c0.125,0.159,0.273,0.296,0.411,0.442c0.009-0.009,0.017-0.013,0.026-0.021 c-0.061-0.301-0.095-0.606-0.065-0.941c0.095,0.137,0.169,0.258,0.255,0.369c0.545,0.687,1.241,1.177,2.042,1.529 c1.081,0.485,2.21,0.571,3.37,0.369c2.375-0.417,3.923-2.088,5.018-4.245C17.826,22.181,17.809,22.134,17.744,22.078L17.744,22.078 z M25.184,20.085c-0.411-0.133-0.96-0.18-1.241-0.125c0.428,0.172,0.61,0.284,0.813,0.516c0.545,0.619,0.45,1.491-0.234,1.959 c-0.506,0.348-1.077,0.451-1.683,0.391c-0.052-0.004-0.099-0.017-0.13-0.026c0.121-0.159,0.26-0.301,0.35-0.464 c0.407-0.722,0.234-1.809-0.376-2.41c-0.091-0.09-0.199-0.168-0.303-0.253c-0.013,0.056-0.004,0.09,0.004,0.12 c0.182,0.713-0.35,1.392-1.073,1.366c-0.329-0.013-0.601-0.163-0.848-0.365c-0.844-0.692-1.691-1.379-2.531-2.075 c-0.255-0.211-0.541-0.348-0.869-0.374c-0.199-0.017-0.402-0.026-0.601-0.039c-0.255-0.017-0.381-0.12-0.45-0.361 c-0.039-0.146-0.065-0.292-0.095-0.438c-0.065-0.348-0.268-0.558-0.619-0.61c-0.19-0.03-0.385-0.043-0.575-0.064 c-0.562-0.06-0.856-0.318-0.978-0.872c-0.216,0.473-0.069,0.962,0.316,1.285c0.195,0.163,0.402,0.314,0.597,0.481 c0.199,0.163,0.32,0.374,0.342,0.636c0.017,0.202,0.035,0.408,0.078,0.606c0.095,0.455,0.385,0.79,0.735,1.078 c0.714,0.589,1.427,1.173,2.141,1.766c0.774,0.644,0.601,1.409,0.562,2.406c-0.039,0.984,0.528,1.843,1.449,2.2 c0.043,0.017,0.087,0.026,0.156,0.047c-0.679-0.782-0.437-1.895,0.03-2.247c0.013,0.095,0.017,0.185,0.039,0.275 c0.407,1.895,1.964,2.758,3.677,2.444c0.692-0.125,1.324-0.382,1.856-0.851c0.087-0.077,0.16-0.176,0.255-0.279 c-0.835,0.198-1.549,0.004-2.202-0.455c0.03-0.013,0.056-0.013,0.082-0.013c0.921,0.077,1.756-0.146,2.466-0.748 c0.844-0.713,1.151-1.843,0.753-2.835C26.72,20.892,26.058,20.368,25.184,20.085L25.184,20.085z M8.344,12.7 c-0.229-0.395-0.571-0.67-0.956-0.915c0.593-0.021,1.151,0.009,1.713,0.159c-0.303-0.524-0.368-1.061-0.216-1.663 c0.229,0.511,0.593,0.864,1.021,1.151c0.852,0.567,1.544,0.842,2.02,1.297c0.147,0.142,0.273,0.305,0.415,0.468 c-0.035-0.09-0.061-0.176-0.095-0.258c-0.216-0.455-0.562-0.799-0.978-1.074c-0.078-0.052-0.121-0.107-0.147-0.193 c-0.143-0.537-0.13-1.078-0.03-1.615c0.043-0.236,0.121-0.468,0.195-0.7c0.035-0.103,0.099-0.198,0.173-0.284 c0.026,0.296,0,1.096,0.848,1.976c0.467,0.485,0.969,0.941,1.466,1.405c0.389,0.365,0.792,0.717,1.103,1.151 c0.048,0.069,0.095,0.142,0.164,0.202c-0.216-0.558-0.614-1.035-1.047-1.452c-0.415-0.4-0.839-0.79-1.263-1.177 c-0.143-0.129-0.199-0.288-0.221-0.468c-0.052-0.447,0-0.885,0.186-1.297c0.022-0.043,0.048-0.086,0.082-0.142 c0.022,0.18,0.026,0.339,0.061,0.498c0.208,0.992,0.882,1.559,2.133,2.728c0.433,0.404,0.835,0.825,1.107,1.358 c0.208,0.4,0.316,0.816,0.247,1.272c-0.004,0.026,0.022,0.073,0.048,0.086c0.268,0.112,0.433,0.296,0.42,0.614 c0.333-0.112,0.541-0.344,0.709-0.623c0.182,0.868-0.394,2.161-1.177,2.522c0.017-0.193,0.216-1.005-0.714-1.19 c-0.294-0.056-0.554-0.056-0.991-0.09c0.203-0.387,0.45-0.885,0.022-0.962c-1.077-0.198-2.284,0.082-2.5,0.198 c0.355,0.017,0.705,0.043,1.017,0.142c-0.087,0.279-0.173,0.546-0.251,0.812c-0.082,0.279,0.091,0.627,0.402,0.412 c0.052-0.039,0.099-0.082,0.143-0.116c-0.134,0.769-0.125,0.683-0.121,0.786c0.013,0.438,0.411,0.335,0.679,0.314 c-0.108,0.507-1.276,1.173-1.964,1.108c0.303-0.202,0.549-0.442,0.688-0.769c-0.281,0.034-0.558,0.069-0.831,0.103l-0.013-0.039 c0.203-0.146,0.346-0.335,0.441-0.563c0.376-0.906-0.156-1.633-1.081-1.714c-0.394-0.034-0.77,0.034-1.12,0.236 c0.268-0.67,0.744-1.143,1.41-1.482c-0.658-0.185-0.385-0.116-1.064-0.271c0.632-0.4,1.306-0.567,2.011-0.627 c-0.225-0.137-2.081-0.155-3.037,0.898c0.342,0.06,0.67,0.12,1.004,0.18c-1.03,0.301-1.903,0.846-2.699,1.529 c0.048-0.206,0.117-0.408,0.143-0.614c0.026-0.193,0.035-0.395,0.004-0.584c-0.065-0.404-0.385-0.649-0.852-0.7 c-0.342-0.039-0.675,0.004-1.008,0.056c-0.039,0.004-0.074,0.013-0.125,0c0.683-0.636,1.557-0.932,2.297-1.439 C8.474,13.147,8.508,12.988,8.344,12.7L8.344,12.7z M13.898,13.851c0.143,0.687,0.545,1.096,1.03,1.044 C14.729,14.41,14.404,14.057,13.898,13.851z"/></svg>